<svg fill="#FFF" version="1.1" width="28" height="28" viewBox="-99 101 300 300" baseProfile="full" xmlns="http://www.w3.org/2000/svg" xmlns:xlink="http://www.w3.org/1999/xlink" xmlns:ev="http://www.w3.org/2001/xml-events">
    <g>
        <path d="M92.1,155.9c9.7-12,16.2-28.3,14.5-44.9c-14.1,0.7-31.4,9.3-41.4,21.4c-8.9,10.3-16.9,27.2-14.8,43.1C66.3,176.8,82.1,167.5,92.1,155.9"></path>
        <path d="M106.4,178.6c-23.1-1.3-42.6,13.1-53.6,13.1s-27.9-12.4-46.1-12c-23.7,0.4-45.7,13.8-57.8,35.1c-24.8,42.7-6.5,106,17.6,140.7c11.7,17.2,25.8,36.1,44.3,35.5c17.6-0.7,24.4-11.4,45.7-11.4s27.5,11.4,46.1,11c19.3-0.4,31.3-17.2,43-34.4c13.4-19.6,18.9-38.5,19.3-39.6c-0.4-0.4-37.1-14.4-37.5-56.7c-0.4-35.4,28.8-52.3,30.3-53.3C141.2,182.1,115.4,179.3,106.4,178.6"></path>
    </g>
</svg>
