<?xml version="1.0" encoding="iso-8859-1"?>
<!-- Generator: Adobe Illustrator 19.0.0, SVG Export Plug-In . SVG Version: 6.00 Build 0)  -->
<svg xmlns="http://www.w3.org/2000/svg" xmlns:xlink="http://www.w3.org/1999/xlink" version="1.1" id="Capa_1" x="0px" y="0px" viewBox="0 0 512 512" style="enable-background:new 0 0 512 512;" xml:space="preserve" width="512px" height="512px">
<g>
	<g>
		<g>
			<path d="M477.867,358.4h-8.533v-60.442c0-35.346-28.654-64-64-64c-35.346,0-64,28.654-64,64V358.4H332.8     c-4.713,0-8.533,3.82-8.533,8.533V460.8c0.033,28.263,22.937,51.167,51.2,51.2H435.2c28.263-0.033,51.167-22.937,51.2-51.2     v-93.867C486.4,362.221,482.58,358.4,477.867,358.4z M358.4,297.958c0-25.921,21.013-46.933,46.933-46.933     c25.921,0,46.933,21.013,46.933,46.933V358.4H358.4V297.958z M469.333,460.8c0,18.851-15.282,34.133-34.133,34.133h-59.733     c-18.851,0-34.133-15.282-34.133-34.133v-85.333h128V460.8z" fill="#bcbec3"/>
			<path d="M375.868,418.133h58.931c4.713,0,8.533-3.82,8.533-8.533s-3.82-8.533-8.533-8.533h-58.931     c-4.713,0-8.533,3.82-8.533,8.533S371.155,418.133,375.868,418.133z" fill="#bcbec3"/>
			<path d="M375.868,460.8h58.931c4.713,0,8.533-3.821,8.533-8.533c0-4.713-3.82-8.533-8.533-8.533h-58.931     c-4.713,0-8.533,3.821-8.533,8.533C367.334,456.979,371.155,460.8,375.868,460.8z" fill="#bcbec3"/>
			<path d="M435.2,136.533c0-18.851-15.282-34.133-34.133-34.133H281.6V42.667C281.572,19.114,262.486,0.028,238.933,0H68.267     C44.714,0.028,25.628,19.114,25.6,42.667v426.667c0.028,23.552,19.114,42.638,42.667,42.667h170.667     c23.552-0.028,42.638-19.114,42.667-42.667V170.667h119.467C419.918,170.667,435.2,155.385,435.2,136.533z M264.533,469.333     c0,14.138-11.461,25.6-25.6,25.6H68.267c-14.138,0-25.6-11.461-25.6-25.6V42.667c0-14.138,11.461-25.6,25.6-25.6h170.667     c14.138,0,25.6,11.462,25.6,25.6V102.4H212.48c-12.021-21.177-34.529-34.225-58.88-34.133c-37.703,0-68.267,30.564-68.267,68.267     S115.897,204.8,153.6,204.8c24.351,0.092,46.859-12.956,58.88-34.133h52.053V469.333z M153.6,170.667h38.212     c-9.684,10.928-23.611,17.148-38.212,17.067c-28.277,0-51.2-22.923-51.2-51.2s22.923-51.2,51.2-51.2     c14.602-0.085,28.53,6.136,38.212,17.067H153.6c-18.851,0-34.133,15.282-34.133,34.133S134.749,170.667,153.6,170.667z      M153.6,153.6c-9.426,0-17.067-7.641-17.067-17.067s7.641-17.067,17.067-17.067h247.467c9.426,0,17.067,7.641,17.067,17.067     s-7.641,17.067-17.067,17.067H153.6z" fill="#bcbec3"/>
			<path d="M153.6,307.2c-12.459-0.036-23.125,8.925-25.237,21.204c-2.112,12.279,4.948,24.289,16.703,28.417V384     c0,4.713,3.82,8.533,8.533,8.533s8.533-3.82,8.533-8.533v-27.179c11.755-4.128,18.815-16.138,16.703-28.417     S166.059,307.164,153.6,307.2z M153.6,341.333c-4.713,0-8.533-3.821-8.533-8.533c0-4.713,3.82-8.533,8.533-8.533     s8.533,3.821,8.533,8.533C162.133,337.513,158.313,341.333,153.6,341.333z" fill="#bcbec3"/>
		</g>
	</g>
</g>
<g>
</g>
<g>
</g>
<g>
</g>
<g>
</g>
<g>
</g>
<g>
</g>
<g>
</g>
<g>
</g>
<g>
</g>
<g>
</g>
<g>
</g>
<g>
</g>
<g>
</g>
<g>
</g>
<g>
</g>
</svg>
