<?xml version="1.0"?>
<svg xmlns="http://www.w3.org/2000/svg" height="512px" viewBox="0 0 512 512" width="512px"><path d="m335.265625 239.933594c0 8.285156-6.714844 15-15 15-8.28125 0-15-6.714844-15-15s6.71875-15 15-15c8.285156 0 15 6.714844 15 15zm0 0" fill="#bcbec3"/><path d="m383.46875 288.132812c0 8.285157-6.71875 15-15 15-8.285156 0-15-6.714843-15-15 0-8.285156 6.714844-15 15-15 8.28125 0 15 6.714844 15 15zm0 0" fill="#bcbec3"/><path d="m383.46875 368.464844c0 8.285156-6.71875 15-15 15-8.285156 0-15-6.714844-15-15s6.714844-15 15-15c8.28125 0 15 6.714844 15 15zm0 0" fill="#bcbec3"/><path d="m335.265625 328.300781c0 8.285157-6.714844 15-15 15-8.28125 0-15-6.714843-15-15 0-8.285156 6.71875-15 15-15 8.285156 0 15 6.714844 15 15zm0 0" fill="#bcbec3"/><path d="m335.265625 416.664062c0 8.285157-6.714844 15-15 15-8.28125 0-15-6.714843-15-15 0-8.28125 6.71875-15 15-15 8.285156 0 15 6.71875 15 15zm0 0" fill="#bcbec3"/><path d="m497 313.300781h-49.878906c-1.898438-23.648437-8.265625-46.386719-18.714844-67.21875l43.808594-25.292969c7.175781-4.140624 9.632812-13.3125 5.488281-20.488281-4.140625-7.175781-13.316406-9.632812-20.488281-5.492187l-44.429688 25.652344c-21.753906-29.875-47.042968-46.078126-61.449218-53.882813v-15.507813c0-53.945312-42.554688-77.582031-62.558594-83.367187l42.097656-42.097656c5.855469-5.855469 5.855469-15.355469 0-21.210938-5.859375-5.859375-15.355469-5.859375-21.214844 0l-53.660156 53.660157-53.660156-53.660157c-5.855469-5.859375-15.355469-5.859375-21.210938 0-5.859375 5.855469-5.859375 15.351563 0 21.210938l42.09375 42.09375c-20.148437 5.832031-62.554687 29.660156-62.554687 83.367187v15.511719c-14.441407 7.820313-39.707031 24.023437-61.453125 53.882813l-44.429688-25.652344c-7.171875-4.144532-16.347656-1.683594-20.488281 5.488281-4.144531 7.175781-1.683594 16.351563 5.488281 20.492187l43.808594 25.289063c-10.445312 20.835937-16.816406 43.574219-18.714844 67.21875h-49.878906c-8.285156 0-15 6.71875-15 15 0 8.285156 6.714844 15 15 15h49.878906c1.898438 23.648437 8.265625 46.386719 18.714844 67.222656l-43.808594 25.289063c-7.171875 4.140625-9.632812 13.316406-5.488281 20.488281 3.589844 6.222656 12.441406 10.140625 20.488281 5.492187l44.429688-25.652343c52.058594 71.484375 126.714844 75.863281 148.753906 75.863281h16.0625c22.035156 0 96.695312-4.378906 148.75-75.859375l44.429688 25.648437c8.195312 4.734376 16.96875.613282 20.492187-5.488281 4.140625-7.175781 1.683594-16.351562-5.492187-20.492187l-43.804688-25.289063c10.445312-20.835937 16.816406-43.574219 18.714844-67.21875h49.878906c8.285156 0 15-6.71875 15-15 0-8.285156-6.714844-15-15-15zm-256 168.542969c-38.441406-1.703125-74.335938-17.480469-101.714844-44.863281-29.03125-29.027344-45.019531-67.625-45.019531-108.683594 0-41.054687 15.988281-79.648437 45.019531-108.679687 27.378906-27.382813 63.269532-43.160157 101.714844-44.863282zm6.96875-337.246094c-19.765625 0-39.046875 3.105469-57.300781 9.074219 0-47.53125 39.769531-59.40625 56.800781-59.40625h17.0625c16.65625 0 56.804688 11.695313 56.804688 59.40625-18.253907-5.96875-37.539063-9.074219-57.300782-9.074219-5.816406 0-10.253906 0-16.066406 0zm124.746094 292.382813c-27.378906 27.382812-63.269532 43.160156-101.714844 44.863281v-307.089844c38.441406 1.703125 74.335938 17.480469 101.714844 44.867188 29.03125 29.027344 45.019531 67.621094 45.019531 108.679687 0 41.054688-15.988281 79.652344-45.019531 108.679688zm0 0" fill="#bcbec3"/><path d="m206.734375 416.664062c0 8.285157-6.71875 15-15 15-8.285156 0-15-6.714843-15-15 0-8.28125 6.714844-15 15-15 8.28125 0 15 6.71875 15 15zm0 0" fill="#bcbec3"/><path d="m158.53125 368.464844c0 8.285156-6.714844 15-15 15-8.28125 0-15-6.714844-15-15s6.71875-15 15-15c8.285156 0 15 6.714844 15 15zm0 0" fill="#bcbec3"/><path d="m158.53125 288.132812c0 8.285157-6.714844 15-15 15-8.28125 0-15-6.714843-15-15 0-8.285156 6.71875-15 15-15 8.285156 0 15 6.714844 15 15zm0 0" fill="#bcbec3"/><path d="m206.734375 328.300781c0 8.285157-6.71875 15-15 15-8.285156 0-15-6.714843-15-15 0-8.285156 6.714844-15 15-15 8.28125 0 15 6.714844 15 15zm0 0" fill="#bcbec3"/><path d="m206.734375 239.933594c0 8.285156-6.71875 15-15 15-8.285156 0-15-6.714844-15-15s6.714844-15 15-15c8.28125 0 15 6.714844 15 15zm0 0" fill="#bcbec3"/></svg>
